<?xml version="1.0" encoding="utf-8"?>
<!-- Generator: Adobe Illustrator 23.0.5, SVG Export Plug-In . SVG Version: 6.00 Build 0)  -->
<svg version="1.1" xmlns="http://www.w3.org/2000/svg" xmlns:xlink="http://www.w3.org/1999/xlink" x="0px" y="0px"
	 viewBox="0 0 63 41" style="enable-background:new 0 0 63 41;" xml:space="preserve">
<style type="text/css">
	.st0{fill:none;stroke:#000000;stroke-width:3;stroke-miterlimit:10;}
	.st1{fill:none;stroke:#000000;stroke-width:5;stroke-miterlimit:10;}
	.st2{fill:none;stroke:#000000;stroke-miterlimit:10;}
	.st3{fill:none;stroke:#000000;stroke-width:2;stroke-miterlimit:10;}
</style>
<g id="Layer_1">
</g>
<g id="Layer_2">
	<g>
		<path d="M13,32.42c0,0-1,4-8,3c0,0,2-1,2-3c0,0-3,1-5,0l-1-1c4,0,5-2,5-2c2-5-1-11-1-11c0-2,3-5,3-5c0-4,5-5.84,5-5.84"/>
		<g>
			<line class="st3" x1="13" y1="5.42" x2="13" y2="12.35"/>
			<polyline class="st3" points="13,12.35 13,32.42 60,32.42 60,12.35 			"/>
			<line class="st3" x1="60" y1="12.35" x2="60" y2="5.42"/>
			<line class="st3" x1="60" y1="5.42" x2="51.69" y2="12.35"/>
			<line class="st3" x1="13" y1="5.42" x2="20.96" y2="12.35"/>
			<polyline class="st3" points="20.96,12.35 30.01,20.21 36,25.42 51.69,12.35 			"/>
			<line class="st3" x1="60" y1="5.42" x2="13" y2="5.42"/>
			<line class="st3" x1="13" y1="12.35" x2="20.96" y2="12.35"/>
			<line class="st3" x1="20.96" y1="12.35" x2="51.69" y2="12.35"/>
			<line class="st3" x1="60" y1="12.35" x2="51.69" y2="12.35"/>
			<path d="M18,19.42c6,9,12,0,12,0H18z"/>
			<path d="M54.5,19.42h-12C48.5,28.42,54.5,19.42,54.5,19.42z"/>
		</g>
	</g>
</g>
</svg>
